# xmcd
#
# Track frame offsets:
#       150
#       10500
#       18375
#       27625
#       38413
#       47763
#       55650
#       65475
#       74450
#       82475
#       93250
#       101600
#       110013
#       121413
#       134300
#       143400
#       155825
#       167838
#       178300
#       186075
#
# Disc length: 2611 seconds
#
# Revision: 0
# Processed by: cddbd v1.4PL0 Copyright (c) Steve Scherf et al.
# Submitted via: WhereIsIt 3.25
#
DISCID=170a3114
DTITLE=Jim Reeves - 20 Golden Greats
DYEAR=1900
DGENRE=
TTITLE0=He'll Have To Go
TTITLE1=Bimbo
TTITLE2=I'd Like To Be
TTITLE3=Peace In The Valley
TTITLE4=Billy Bayou
TTITLE5=In A Mansion Stands My Love
TTITLE6=I'm Getting Better
TTITLE7=(Gimme That) Old Time Religion
TTITLE8=I Know One
TTITLE9=I Missed Me
TTITLE10=Yonder Comes A Sucker
TTITLE11=Waiting For A Train
TTITLE12=Am I Losing You?
TTITLE13=When God Dips His Love In My Heart
TTITLE14=According To My Heart
TTITLE15=Four Walls
TTITLE16=Mexican Joe
TTITLE17=Anna Marie
TTITLE18=Blue Boy
TTITLE19=Softly And Tenderly
EXTD=
EXTT0=
EXTT1=
EXTT2=
EXTT3=
EXTT4=
EXTT5=
EXTT6=
EXTT7=
EXTT8=
EXTT9=
EXTT10=
EXTT11=
EXTT12=
EXTT13=
EXTT14=
EXTT15=
EXTT16=
EXTT17=
EXTT18=
EXTT19=
PLAYORDER=
